<svg xmlns="http://www.w3.org/2000/svg" viewBox="0 0 24 24"><path fill="#303C42" d="M12 5C5.383 5 0 8.589 0 13c0 2.737 2.082 6 12 6s12-3.263 12-6c0-4.411-5.383-8-12-8z"/><path fill="#F9A825" d="M19.685 8c-.623.738-1.323 1.694-1.72 2.686a.51.51 0 01-.65.279.503.503 0 01-.28-.651c.32-.799.963-1.805 1.77-2.803.306.154.601.316.88.49zM13.993 6.12c.432.052.859.113 1.272.195-1.59 1.413-3.627 3.686-4.3 5.371a.51.51 0 01-.65.279.502.502 0 01-.28-.65c.641-1.603 2.421-3.728 3.958-5.194zM9.302 6.222c-1.285 1.23-2.733 2.953-3.337 4.464a.51.51 0 01-.65.279.503.503 0 01-.28-.651c.42-1.05 1.338-2.397 2.517-3.71.56-.16 1.145-.285 1.75-.382z"/><path fill="#BCAAA4" d="M19.685 8c-.623.738-1.323 1.694-1.72 2.686a.51.51 0 01-.65.279.503.503 0 01-.28-.651c.32-.799.963-1.805 1.77-2.803.306.154.601.316.88.49zM13.993 6.12c.432.052.859.113 1.272.195-1.59 1.413-3.627 3.686-4.3 5.371a.51.51 0 01-.65.279.502.502 0 01-.28-.65c.641-1.603 2.421-3.728 3.958-5.194zM9.302 6.222c-1.285 1.23-2.733 2.953-3.337 4.464a.51.51 0 01-.65.279.503.503 0 01-.28-.651c.42-1.05 1.338-2.397 2.517-3.71.56-.16 1.145-.285 1.75-.382z" opacity=".5"/><path d="M19.685 8c-.623.738-1.323 1.694-1.72 2.686a.51.51 0 01-.65.279.503.503 0 01-.28-.651c.32-.799.963-1.805 1.77-2.803.306.154.601.316.88.49zM13.993 6.12c.432.052.859.113 1.272.195-1.59 1.413-3.627 3.686-4.3 5.371a.51.51 0 01-.65.279.502.502 0 01-.28-.65c.641-1.603 2.421-3.728 3.958-5.194zM9.302 6.222c-1.285 1.23-2.733 2.953-3.337 4.464a.51.51 0 01-.65.279.503.503 0 01-.28-.651c.42-1.05 1.338-2.397 2.517-3.71.56-.16 1.145-.285 1.75-.382z" opacity=".1"/><path fill="#F9A825" d="M12 18c-5.019 0-11-.868-11-5 0-2.373 1.87-4.471 4.717-5.738-.723.955-1.289 1.878-1.61 2.68A1.503 1.503 0 0 0 5.5 12c.617 0 1.164-.37 1.393-.943.651-1.628 2.628-3.838 4.144-5.026.318-.018.638-.031.963-.031.227 0 .45.013.674.022-1.383 1.417-2.924 3.315-3.567 4.92A1.503 1.503 0 0 0 10.5 13c.617 0 1.164-.37 1.393-.943.687-1.716 3.063-4.227 4.572-5.449.487.139.953.3 1.4.48-.791 1.008-1.426 2.024-1.758 2.855A1.503 1.503 0 0 0 17.5 12c.617 0 1.164-.37 1.393-.943.292-.73.869-1.601 1.621-2.482C22.066 9.782 23 11.322 23 13c0 4.132-5.981 5-11 5z"/><path fill="#BCAAA4" d="M12 18c-5.019 0-11-.868-11-5 0-2.373 1.87-4.471 4.717-5.738-.723.955-1.289 1.878-1.61 2.68A1.503 1.503 0 0 0 5.5 12c.617 0 1.164-.37 1.393-.943.651-1.628 2.628-3.838 4.144-5.026.318-.018.638-.031.963-.031.227 0 .45.013.674.022-1.383 1.417-2.924 3.315-3.567 4.92A1.503 1.503 0 0 0 10.5 13c.617 0 1.164-.37 1.393-.943.687-1.716 3.063-4.227 4.572-5.449.487.139.953.3 1.4.48-.791 1.008-1.426 2.024-1.758 2.855A1.503 1.503 0 0 0 17.5 12c.617 0 1.164-.37 1.393-.943.292-.73.869-1.601 1.621-2.482C22.066 9.782 23 11.322 23 13c0 4.132-5.981 5-11 5z" opacity=".5"/><path d="M22.035 10.144c.137.44.215.892.215 1.356 0 4.132-5.981 5-11 5-3.89 0-8.346-.529-10.16-2.688C1.834 17.245 7.33 18 12 18c5.019 0 11-.868 11-5 0-1.018-.348-1.983-.965-2.856z" opacity=".1"/><linearGradient id="a" x1="1.89" x2="22.479" y1="7.729" y2="17.33" gradientUnits="userSpaceOnUse"><stop offset="0" stop-color="#FFF" stop-opacity=".2"/><stop offset="1" stop-color="#FFF" stop-opacity="0"/></linearGradient><path fill="url(#a)" d="M12 5C5.383 5 0 8.589 0 13c0 2.737 2.082 6 12 6s12-3.263 12-6c0-4.411-5.383-8-12-8z"/></svg>